# xmcd
#
# Track frame offsets: 
#        150
#        24560
#        43715
#        58427
#        83784
#        106564
#        120457
#        145417
#        153382
#        172442
#        189228
#        203965
#        223005
#
# Disc length: 3357 seconds
#
# Revision: 38
# Processed by: cddbd v1.5.2PL0 Copyright (c) Steve Scherf et al.
# Submitted via: ExactAudioCopy v1.3
#
DISCID=bc0d1b0d
DTITLE=椎名林檎 - 勝訴ストリップ
DYEAR=2000
DGENRE=Rock
TTITLE0=虚言症
TTITLE1=浴室
TTITLE2=弁解ドビュッシー
TTITLE3=ギブス
TTITLE4=闇に降る雨
TTITLE5=アイデンティティ
TTITLE6=罪と罰
TTITLE7=ストイシズム
TTITLE8=月に負け犬
TTITLE9=サカナ
TTITLE10=病床パブリック
TTITLE11=本能
TTITLE12=依存症
EXTD=YEAR: 2000
EXTT0=
EXTT1=
EXTT2=
EXTT3=
EXTT4=
EXTT5=
EXTT6=
EXTT7=
EXTT8=
EXTT9=
EXTT10=
EXTT11=
EXTT12=
PLAYORDER=
